<svg width="50" height="50" viewBox="0 0 50 50" fill="none" xmlns="http://www.w3.org/2000/svg">
<g clip-path="url(#clip0_2_87)">
<path d="M4.69387e-07 45.8V8.90003C4.69387e-07 7.73336 0.4 6.73336 1.2 5.90003C2 5.0667 3 4.66669 4.2 4.70003H10.95V1.55003C10.95 1.1167 11.1 0.750031 11.4 0.450031C11.7 0.150028 12.0667 3.05176e-05 12.5 3.05176e-05C12.9333 3.05176e-05 13.3 0.150028 13.6 0.450031C13.9 0.750031 14.05 1.1167 14.05 1.55003V4.70003H23.45V1.55003C23.45 1.1167 23.6 0.750031 23.9 0.450031C24.2 0.150028 24.5667 3.05176e-05 25 3.05176e-05C25.4333 3.05176e-05 25.8 0.150028 26.1 0.450031C26.4 0.750031 26.55 1.1167 26.55 1.55003V4.70003H35.95V1.55003C35.95 1.1167 36.1 0.750031 36.4 0.450031C36.7 0.150028 37.0667 3.05176e-05 37.5 3.05176e-05C37.9333 3.05176e-05 38.3 0.150028 38.6 0.450031C38.9 0.750031 39.05 1.1167 39.05 1.55003V4.70003H45.8C46.9667 4.70003 47.9667 5.10003 48.8 5.90003C49.6333 6.70003 50.0333 7.70003 50 8.90003V45.8C50 46.9667 49.6 47.9667 48.8 48.8C48 49.6334 47 50.0334 45.8 50H4.2C3.03333 50 2.03333 49.6 1.2 48.8C0.366667 48 -0.0333329 47 4.69387e-07 45.8ZM3.15 45.8C3.15 46.1334 3.23333 46.4 3.4 46.6C3.56667 46.8 3.83333 46.9 4.2 46.9H45.8C46.1333 46.9 46.4 46.8 46.6 46.6C46.8 46.4 46.8833 46.1334 46.85 45.8V8.90003C46.85 8.5667 46.7667 8.30003 46.6 8.10003C46.4333 7.90003 46.1667 7.80003 45.8 7.80003H39.05V10.95C39.05 11.3834 38.9 11.75 38.6 12.05C38.3 12.35 37.9333 12.5 37.5 12.5C37.0667 12.5 36.7 12.35 36.4 12.05C36.1 11.75 35.95 11.3834 35.95 10.95V7.80003H26.55V10.95C26.55 11.3834 26.4 11.75 26.1 12.05C25.8 12.35 25.4333 12.5 25 12.5C24.5667 12.5 24.2 12.35 23.9 12.05C23.6 11.75 23.45 11.3834 23.45 10.95V7.80003H14.05V10.95C14.05 11.3834 13.9 11.75 13.6 12.05C13.3 12.35 12.9333 12.5 12.5 12.5C12.0667 12.5 11.7 12.35 11.4 12.05C11.1 11.75 10.95 11.3834 10.95 10.95V7.80003H4.2C3.86667 7.80003 3.6 7.90003 3.4 8.10003C3.2 8.30003 3.11667 8.5667 3.15 8.90003V45.8ZM10.95 39.05V34.35H17.2V39.05H10.95ZM10.95 31.25V26.55H17.2V31.25H10.95ZM10.95 23.45V18.75H17.2V23.45H10.95ZM21.9 39.05V34.35H28.15V39.05H21.9ZM21.9 31.25V26.55H28.15V31.25H21.9ZM21.9 23.45V18.75H28.15V23.45H21.9ZM32.8 39.05V34.35H39.05V39.05H32.8ZM32.8 31.25V26.55H39.05V31.25H32.8ZM32.8 23.45V18.75H39.05V23.45H32.8Z" fill="#DA0017"/>
</g>
<defs>
<clipPath id="clip0_2_87">
<rect width="50" height="50" fill="white" transform="matrix(1 0 0 -1 0 50)"/>
</clipPath>
</defs>
</svg>
