<svg width="63" height="51" viewBox="0 0 63 51" fill="none" xmlns="http://www.w3.org/2000/svg">
<path d="M39.2586 9.625C36.6219 9.625 34.5711 7.57422 34.5711 4.9375C34.5711 2.39844 36.6219 0.25 39.2586 0.25C41.7977 0.25 43.9461 2.39844 43.9461 4.9375C43.9461 7.57422 41.7977 9.625 39.2586 9.625ZM38.868 21.4414L34.7664 18.2188L29.1023 23.1016L33.1063 25.8359C33.9852 26.4219 34.4734 27.3008 34.5711 28.375V40.875C34.5711 42.6328 33.1063 44 31.4461 44C29.6883 44 28.3211 42.6328 28.3211 40.875V30.1328L20.3133 24.7617C19.4344 24.1758 18.9461 23.2969 18.9461 22.125C18.9461 21.2461 19.3367 20.3672 20.0203 19.7812L30.9578 10.4062C31.4461 9.91797 32.2273 9.625 33.0086 9.625C33.6922 9.625 34.3758 9.91797 34.9617 10.3086L41.8953 15.875H47.0711C48.7313 15.875 50.1961 17.3398 50.1961 19C50.1961 20.7578 48.7313 22.125 47.0711 22.125H40.8211C40.7234 22.125 40.7234 22.125 40.7234 22.125C40.0398 22.125 39.3563 21.9297 38.868 21.4414ZM50.1961 25.25C57.032 25.25 62.6961 30.9141 62.6961 37.75C62.6961 44.6836 57.032 50.25 50.1961 50.25C43.2625 50.25 37.6961 44.6836 37.6961 37.75C37.6961 30.9141 43.2625 25.25 50.1961 25.25ZM50.1961 44C53.6141 44 56.4461 41.2656 56.4461 37.75C56.4461 34.332 53.6141 31.5 50.1961 31.5C46.6805 31.5 43.9461 34.332 43.9461 37.75C43.9461 41.2656 46.6805 44 50.1961 44ZM12.6961 25.25C19.532 25.25 25.1961 30.9141 25.1961 37.75C25.1961 44.6836 19.532 50.25 12.6961 50.25C5.7625 50.25 0.196095 44.6836 0.196095 37.75C0.196095 30.9141 5.7625 25.25 12.6961 25.25ZM12.6961 44C16.1141 44 18.9461 41.2656 18.9461 37.75C18.9461 34.332 16.1141 31.5 12.6961 31.5C9.18047 31.5 6.44609 34.332 6.44609 37.75C6.44609 41.2656 9.18047 44 12.6961 44Z" fill="#DA0017"/>
</svg>
