<svg width="50" height="44" viewBox="0 0 50 44" fill="none" xmlns="http://www.w3.org/2000/svg">
<path d="M50 44H38.8V36.5C38.8 34.7 38.3 33.35 37.3 32.45C36.3 31.55 33.7333 30.0667 29.6 28C30.9333 27 31.6 25.6 31.6 23.8C31.6 23.2667 31.3833 22.7167 30.95 22.15C30.5167 21.5833 30.2 20.7333 30 19.6C29.9333 19.3333 29.7 19.0667 29.3 18.8C28.9 18.5333 28.6667 17.8333 28.6 16.7C28.6 15.9 28.8 15.4 29.2 15.2C29 14.0667 28.8667 13.0667 28.8 12.2C28.6667 10.9333 29.05 9.63333 29.95 8.3C30.85 6.96667 32.4333 6.3 34.7 6.3C36.9667 6.3 38.5667 6.96667 39.5 8.3C40.4333 9.63333 40.8333 10.9333 40.7 12.2L40.3 15.2C40.7 15.4 40.9 15.9 40.9 16.7C40.8333 17.8333 40.6 18.5333 40.2 18.8C39.8 19.0667 39.5667 19.3333 39.5 19.6C39.3 20.7333 38.9833 21.5833 38.55 22.15C38.1167 22.7167 37.9 23.2667 37.9 23.8C37.9 25.2 38.25 26.3 38.95 27.1C39.65 27.9 40.9333 28.7 42.8 29.5C46.5333 31.0333 48.7 32.3667 49.3 33.5C49.5 33.7667 49.65 34.7833 49.75 36.55C49.85 38.3167 49.9333 40 50 41.6V44ZM25.6 30.9C31.6667 33.5 34.7 35.5667 34.7 37.1V44H0V34.8C0 33.3333 1.4 32.0333 4.2 30.9C6.73333 29.8333 8.46667 28.7667 9.4 27.7C10.3333 26.6333 10.8 25.1667 10.8 23.3C10.8 22.6333 10.4833 21.9 9.85 21.1C9.21667 20.3 8.8 19.1667 8.6 17.7C8.53333 17.3667 8.23333 17 7.7 16.6C7.16667 16.2 6.83333 15.2667 6.7 13.8C6.7 13.3333 6.75 12.95 6.85 12.65C6.95 12.35 7.06667 12.1333 7.2 12L7.4 11.9C7.2 10.3667 7.03333 9 6.9 7.8C6.76667 6.13333 7.31667 4.41666 8.55 2.65C9.78333 0.883331 11.9 0 14.9 0C17.9 0 20.0167 0.883331 21.25 2.65C22.4833 4.41666 23.0333 6.13333 22.9 7.8L22.4 11.9C22.8667 12.1667 23.1 12.8 23.1 13.8C22.9667 15.2667 22.6333 16.2 22.1 16.6C21.5667 17 21.2667 17.3667 21.2 17.7C21 19.1667 20.5833 20.3 19.95 21.1C19.3167 21.9 19 22.6333 19 23.3C19 25.1667 19.4667 26.6333 20.4 27.7C21.3333 28.7667 23.0667 29.8333 25.6 30.9Z" fill="#DA0017"/>
</svg>
